<svg xmlns="http://www.w3.org/2000/svg" width="600" height="800" viewBox="0 0 600 800" role="img" aria-labelledby="title desc">
  <title id="title">在中国生活与工作 · 实用中文口语 电子书封面</title>
  <desc id="desc">深海绿色、金色书脊的原创中文口语电子书封面，以城市建筑、工厂、交通、对话框组成现代线条插画。</desc>
  <defs>
    <linearGradient id="paper" x1="0" y1="0" x2="1" y2="1"><stop offset="0" stop-color="#0a383b"/><stop offset=".51" stop-color="#115454"/><stop offset="1" stop-color="#1c7568"/></linearGradient>
    <linearGradient id="art" x1="0" y1="0" x2="1" y2="1"><stop stop-color="#e8e5cb"/><stop offset="1" stop-color="#dbbd82"/></linearGradient>
    <linearGradient id="screen" x1="0" y1="0" x2="1" y2="1"><stop stop-color="#eff1d7" stop-opacity=".24"/><stop offset="1" stop-color="#b1d6c0" stop-opacity=".06"/></linearGradient>
    <pattern id="texture" width="20" height="20" patternUnits="userSpaceOnUse"><circle cx="1.5" cy="1.5" r=".9" fill="#e2f2e1" opacity=".09"/></pattern>
  </defs>
  <rect width="600" height="800" rx="13" fill="url(#paper)"/>
  <rect width="600" height="800" fill="url(#texture)" rx="13"/>
  <path d="M44 0h17v800H44z" fill="#e5ca94" opacity=".72"/>
  <path d="M69 0h2v800h-2z" fill="#e4ecdb" opacity=".6"/>
  <circle cx="522" cy="74" r="143" fill="#9ed0b5" opacity=".05"/>
  <circle cx="517" cy="76" r="105" fill="none" stroke="#d6ebd9" stroke-opacity=".18" stroke-width="1.5"/>
  <rect x="105" y="65" width="315" height="42" rx="21" fill="#f5f9ed" fill-opacity=".1" stroke="#f5f9ed" stroke-opacity=".25"/>
  <text x="123" y="93" font-family="Arial,sans-serif" font-size="18" font-weight="700" letter-spacing="1.5" fill="#eaf5e9">TALKAMI  ·  SPOKEN CHINESE</text>
  <text x="104" y="194" font-family="'Noto Sans CJK SC','Microsoft YaHei',sans-serif" font-size="56" font-weight="800" fill="#ffffff">在中国</text>
  <text x="104" y="268" font-family="'Noto Sans CJK SC','Microsoft YaHei',sans-serif" font-size="56" font-weight="800" fill="#ffffff">生活与工作</text>
  <path d="M105 294h355" stroke="#f0dbad" stroke-opacity=".52" stroke-width="2"/>
  <text x="108" y="340" font-family="'Noto Sans CJK SC','Microsoft YaHei',sans-serif" font-size="27" font-weight="700" fill="#ead7ae">实用中文口语大全</text>
  <text x="107" y="370" font-family="Arial,sans-serif" font-size="14" letter-spacing="2.8" fill="#d8e9dc">PRACTICAL SPOKEN CHINESE</text>
  <g transform="translate(80 405)" fill="none" stroke="url(#art)" stroke-linecap="round" stroke-linejoin="round">
    <circle cx="247" cy="123" r="149" stroke-width="2" opacity=".18"/>
    <circle cx="247" cy="123" r="126" stroke-width="2" opacity=".14"/>
    <path d="M44 259h439" stroke-width="4" opacity=".75"/>
    <path d="M72 258V106h89v152 M95 134h16m22 0h9 M95 165h16m22 0h9 M95 195h16m22 0h9 M98 230h36" stroke-width="7"/>
    <path d="M175 258V60h120v198 M193 91h84M194 129h83M194 167h82 M203 199h20v59 M243 199h21v59 M178 58h113" stroke-width="7"/>
    <path d="M309 258V147l48-31 49 31v111 M330 180h54 M330 212h55 M329 241h58" stroke-width="7"/>
    <path d="M409 259V89h55v170 M426 110h20 M426 140h20 M426 170h20 M426 200h20" stroke-width="7"/>
    <path d="M218 64V36h33V10 M341 118V93h53v23" stroke-width="5" opacity=".7"/>
    <path d="M79 288h356" stroke-width="3" stroke-dasharray="8 12" opacity=".5"/>
    <path d="M283 14Q332-29 382 4v44H344l-16 19-1-19h-44z" fill="url(#screen)" stroke-width="6"/>
    <circle cx="313" cy="24" r="3.8" fill="#ead7ae" stroke="none"/>
    <circle cx="332" cy="24" r="3.8" fill="#ead7ae" stroke="none"/>
    <circle cx="351" cy="24" r="3.8" fill="#ead7ae" stroke="none"/>
    <path d="M99 62Q99 29 130 29h83Q244 29 244 62v25H173l-19 18-3-18h-52z" fill="url(#screen)" stroke-width="6"/>
    <path d="M122 59h93" stroke-width="6"/>
  </g>
  <rect x="103" y="707" width="380" height="41" rx="9" fill="#eaf5dd" fill-opacity=".12"/>
  <text x="123" y="736" font-size="22" font-weight="800" fill="#f7f2df" font-family="'Noto Sans CJK SC','Microsoft YaHei',sans-serif">10 大专区  ·  60 个主题</text>
  <text x="105" y="777" font-family="Arial,sans-serif" font-size="14" letter-spacing="1.6" fill="#d7e4da">CHINESE  ·  MYANMAR  ·  LEARN TO SPEAK</text>
</svg>